<svg width="512" height="32" viewBox="0 0 512 32" fill="none" xmlns="http://www.w3.org/2000/svg">
<path transform='rotate(0.0 8 8)' fill-rule="evenodd" clip-rule="evenodd" d="M8 2.5C4.96243 2.5 2.5 4.96243 2.5 8C2.5 11.0375 4.96243 13.5 8 13.5C11.0375 13.5 13.5 11.0375 13.5 8C13.5 7.72387 13.7239 7.5 14 7.5C14.2761 7.5 14.5 7.72387 14.5 8C14.5 11.5899 11.5899 14.5 8 14.5C4.41015 14.5 1.5 11.5899 1.5 8C1.5 4.41015 4.41015 1.5 8 1.5C8.27613 1.5 8.5 1.72386 8.5 2C8.5 2.27614 8.27613 2.5 8 2.5Z" fill="white"/>
<path transform='rotate(5.625 24 8)' fill-rule="evenodd" clip-rule="evenodd" d="M24 2.5C20.9624 2.5 18.5 4.96243 18.5 8C18.5 11.0375 20.9624 13.5 24 13.5C27.0375 13.5 29.5 11.0375 29.5 8C29.5 7.72387 29.7239 7.5 30 7.5C30.2761 7.5 30.5 7.72387 30.5 8C30.5 11.5899 27.5899 14.5 24 14.5C20.4101 14.5 17.5 11.5899 17.5 8C17.5 4.41015 20.4101 1.5 24 1.5C24.2761 1.5 24.5 1.72386 24.5 2C24.5 2.27614 24.2761 2.5 24 2.5Z" fill="white"/>
<path transform='rotate(11.25 40 8)' fill-rule="evenodd" clip-rule="evenodd" d="M40 2.5C36.9624 2.5 34.5 4.96243 34.5 8C34.5 11.0375 36.9624 13.5 40 13.5C43.0375 13.5 45.5 11.0375 45.5 8C45.5 7.72387 45.7239 7.5 46 7.5C46.2761 7.5 46.5 7.72387 46.5 8C46.5 11.5899 43.5899 14.5 40 14.5C36.4101 14.5 33.5 11.5899 33.5 8C33.5 4.41015 36.4101 1.5 40 1.5C40.2761 1.5 40.5 1.72386 40.5 2C40.5 2.27614 40.2761 2.5 40 2.5Z" fill="white"/>
<path transform='rotate(16.875 56 8)' fill-rule="evenodd" clip-rule="evenodd" d="M56 2.5C52.9624 2.5 50.5 4.96243 50.5 8C50.5 11.0375 52.9624 13.5 56 13.5C59.0375 13.5 61.5 11.0375 61.5 8C61.5 7.72387 61.7239 7.5 62 7.5C62.2761 7.5 62.5 7.72387 62.5 8C62.5 11.5899 59.5899 14.5 56 14.5C52.4101 14.5 49.5 11.5899 49.5 8C49.5 4.41015 52.4101 1.5 56 1.5C56.2761 1.5 56.5 1.72386 56.5 2C56.5 2.27614 56.2761 2.5 56 2.5Z" fill="white"/>
<path transform='rotate(22.5 72 8)' fill-rule="evenodd" clip-rule="evenodd" d="M72 2.5C68.9624 2.5 66.5 4.96243 66.5 8C66.5 11.0375 68.9624 13.5 72 13.5C75.0375 13.5 77.5 11.0375 77.5 8C77.5 7.72387 77.7239 7.5 78 7.5C78.2761 7.5 78.5 7.72387 78.5 8C78.5 11.5899 75.5899 14.5 72 14.5C68.4101 14.5 65.5 11.5899 65.5 8C65.5 4.41015 68.4101 1.5 72 1.5C72.2761 1.5 72.5 1.72386 72.5 2C72.5 2.27614 72.2761 2.5 72 2.5Z" fill="white"/>
<path transform='rotate(28.125 88 8)' fill-rule="evenodd" clip-rule="evenodd" d="M88 2.5C84.9624 2.5 82.5 4.96243 82.5 8C82.5 11.0375 84.9624 13.5 88 13.5C91.0375 13.5 93.5 11.0375 93.5 8C93.5 7.72387 93.7239 7.5 94 7.5C94.2761 7.5 94.5 7.72387 94.5 8C94.5 11.5899 91.5899 14.5 88 14.5C84.4101 14.5 81.5 11.5899 81.5 8C81.5 4.41015 84.4101 1.5 88 1.5C88.2761 1.5 88.5 1.72386 88.5 2C88.5 2.27614 88.2761 2.5 88 2.5Z" fill="white"/>
<path transform='rotate(33.75 104 8)' fill-rule="evenodd" clip-rule="evenodd" d="M104 2.5C100.962 2.5 98.5 4.96243 98.5 8C98.5 11.0375 100.962 13.5 104 13.5C107.038 13.5 109.5 11.0375 109.5 8C109.5 7.72387 109.724 7.5 110 7.5C110.276 7.5 110.5 7.72387 110.5 8C110.5 11.5899 107.59 14.5 104 14.5C100.41 14.5 97.5 11.5899 97.5 8C97.5 4.41015 100.41 1.5 104 1.5C104.276 1.5 104.5 1.72386 104.5 2C104.5 2.27614 104.276 2.5 104 2.5Z" fill="white"/>
<path transform='rotate(39.375 120 8)' fill-rule="evenodd" clip-rule="evenodd" d="M120 2.5C116.962 2.5 114.5 4.96243 114.5 8C114.5 11.0375 116.962 13.5 120 13.5C123.038 13.5 125.5 11.0375 125.5 8C125.5 7.72387 125.724 7.5 126 7.5C126.276 7.5 126.5 7.72387 126.5 8C126.5 11.5899 123.59 14.5 120 14.5C116.41 14.5 113.5 11.5899 113.5 8C113.5 4.41015 116.41 1.5 120 1.5C120.276 1.5 120.5 1.72386 120.5 2C120.5 2.27614 120.276 2.5 120 2.5Z" fill="white"/>
<path transform='rotate(45.0 136 8)' fill-rule="evenodd" clip-rule="evenodd" d="M136 2.5C132.962 2.5 130.5 4.96243 130.5 8C130.5 11.0375 132.962 13.5 136 13.5C139.038 13.5 141.5 11.0375 141.5 8C141.5 7.72387 141.724 7.5 142 7.5C142.276 7.5 142.5 7.72387 142.5 8C142.5 11.5899 139.59 14.5 136 14.5C132.41 14.5 129.5 11.5899 129.5 8C129.5 4.41015 132.41 1.5 136 1.5C136.276 1.5 136.5 1.72386 136.5 2C136.5 2.27614 136.276 2.5 136 2.5Z" fill="white"/>
<path transform='rotate(50.625 152 8)' fill-rule="evenodd" clip-rule="evenodd" d="M152 2.5C148.962 2.5 146.5 4.96243 146.5 8C146.5 11.0375 148.962 13.5 152 13.5C155.038 13.5 157.5 11.0375 157.5 8C157.5 7.72387 157.724 7.5 158 7.5C158.276 7.5 158.5 7.72387 158.5 8C158.5 11.5899 155.59 14.5 152 14.5C148.41 14.5 145.5 11.5899 145.5 8C145.5 4.41015 148.41 1.5 152 1.5C152.276 1.5 152.5 1.72386 152.5 2C152.5 2.27614 152.276 2.5 152 2.5Z" fill="white"/>
<path transform='rotate(56.25 168 8)' fill-rule="evenodd" clip-rule="evenodd" d="M168 2.5C164.962 2.5 162.5 4.96243 162.5 8C162.5 11.0375 164.962 13.5 168 13.5C171.038 13.5 173.5 11.0375 173.5 8C173.5 7.72387 173.724 7.5 174 7.5C174.276 7.5 174.5 7.72387 174.5 8C174.5 11.5899 171.59 14.5 168 14.5C164.41 14.5 161.5 11.5899 161.5 8C161.5 4.41015 164.41 1.5 168 1.5C168.276 1.5 168.5 1.72386 168.5 2C168.5 2.27614 168.276 2.5 168 2.5Z" fill="white"/>
<path transform='rotate(61.875 184 8)' fill-rule="evenodd" clip-rule="evenodd" d="M184 2.5C180.962 2.5 178.5 4.96243 178.5 8C178.5 11.0375 180.962 13.5 184 13.5C187.038 13.5 189.5 11.0375 189.5 8C189.5 7.72387 189.724 7.5 190 7.5C190.276 7.5 190.5 7.72387 190.5 8C190.5 11.5899 187.59 14.5 184 14.5C180.41 14.5 177.5 11.5899 177.5 8C177.5 4.41015 180.41 1.5 184 1.5C184.276 1.5 184.5 1.72386 184.5 2C184.5 2.27614 184.276 2.5 184 2.5Z" fill="white"/>
<path transform='rotate(67.5 200 8)' fill-rule="evenodd" clip-rule="evenodd" d="M200 2.5C196.962 2.5 194.5 4.96243 194.5 8C194.5 11.0375 196.962 13.5 200 13.5C203.038 13.5 205.5 11.0375 205.5 8C205.5 7.72387 205.724 7.5 206 7.5C206.276 7.5 206.5 7.72387 206.5 8C206.5 11.5899 203.59 14.5 200 14.5C196.41 14.5 193.5 11.5899 193.5 8C193.5 4.41015 196.41 1.5 200 1.5C200.276 1.5 200.5 1.72386 200.5 2C200.5 2.27614 200.276 2.5 200 2.5Z" fill="white"/>
<path transform='rotate(73.125 216 8)' fill-rule="evenodd" clip-rule="evenodd" d="M216 2.5C212.962 2.5 210.5 4.96243 210.5 8C210.5 11.0375 212.962 13.5 216 13.5C219.038 13.5 221.5 11.0375 221.5 8C221.5 7.72387 221.724 7.5 222 7.5C222.276 7.5 222.5 7.72387 222.5 8C222.5 11.5899 219.59 14.5 216 14.5C212.41 14.5 209.5 11.5899 209.5 8C209.5 4.41015 212.41 1.5 216 1.5C216.276 1.5 216.5 1.72386 216.5 2C216.5 2.27614 216.276 2.5 216 2.5Z" fill="white"/>
<path transform='rotate(78.75 232 8)' fill-rule="evenodd" clip-rule="evenodd" d="M232 2.5C228.962 2.5 226.5 4.96243 226.5 8C226.5 11.0375 228.962 13.5 232 13.5C235.038 13.5 237.5 11.0375 237.5 8C237.5 7.72387 237.724 7.5 238 7.5C238.276 7.5 238.5 7.72387 238.5 8C238.5 11.5899 235.59 14.5 232 14.5C228.41 14.5 225.5 11.5899 225.5 8C225.5 4.41015 228.41 1.5 232 1.5C232.276 1.5 232.5 1.72386 232.5 2C232.5 2.27614 232.276 2.5 232 2.5Z" fill="white"/>
<path transform='rotate(84.375 248 8)' fill-rule="evenodd" clip-rule="evenodd" d="M248 2.5C244.962 2.5 242.5 4.96243 242.5 8C242.5 11.0375 244.962 13.5 248 13.5C251.038 13.5 253.5 11.0375 253.5 8C253.5 7.72387 253.724 7.5 254 7.5C254.276 7.5 254.5 7.72387 254.5 8C254.5 11.5899 251.59 14.5 248 14.5C244.41 14.5 241.5 11.5899 241.5 8C241.5 4.41015 244.41 1.5 248 1.5C248.276 1.5 248.5 1.72386 248.5 2C248.5 2.27614 248.276 2.5 248 2.5Z" fill="white"/>
<path transform='rotate(90.0 264 8)' fill-rule="evenodd" clip-rule="evenodd" d="M264 2.5C260.962 2.5 258.5 4.96243 258.5 8C258.5 11.0375 260.962 13.5 264 13.5C267.038 13.5 269.5 11.0375 269.5 8C269.5 7.72387 269.724 7.5 270 7.5C270.276 7.5 270.5 7.72387 270.5 8C270.5 11.5899 267.59 14.5 264 14.5C260.41 14.5 257.5 11.5899 257.5 8C257.5 4.41015 260.41 1.5 264 1.5C264.276 1.5 264.5 1.72386 264.5 2C264.5 2.27614 264.276 2.5 264 2.5Z" fill="white"/>
<path transform='rotate(95.625 280 8)' fill-rule="evenodd" clip-rule="evenodd" d="M280 2.5C276.962 2.5 274.5 4.96243 274.5 8C274.5 11.0375 276.962 13.5 280 13.5C283.038 13.5 285.5 11.0375 285.5 8C285.5 7.72387 285.724 7.5 286 7.5C286.276 7.5 286.5 7.72387 286.5 8C286.5 11.5899 283.59 14.5 280 14.5C276.41 14.5 273.5 11.5899 273.5 8C273.5 4.41015 276.41 1.5 280 1.5C280.276 1.5 280.5 1.72386 280.5 2C280.5 2.27614 280.276 2.5 280 2.5Z" fill="white"/>
<path transform='rotate(101.25 296 8)' fill-rule="evenodd" clip-rule="evenodd" d="M296 2.5C292.962 2.5 290.5 4.96243 290.5 8C290.5 11.0375 292.962 13.5 296 13.5C299.038 13.5 301.5 11.0375 301.5 8C301.5 7.72387 301.724 7.5 302 7.5C302.276 7.5 302.5 7.72387 302.5 8C302.5 11.5899 299.59 14.5 296 14.5C292.41 14.5 289.5 11.5899 289.5 8C289.5 4.41015 292.41 1.5 296 1.5C296.276 1.5 296.5 1.72386 296.5 2C296.5 2.27614 296.276 2.5 296 2.5Z" fill="white"/>
<path transform='rotate(106.875 312 8)' fill-rule="evenodd" clip-rule="evenodd" d="M312 2.5C308.962 2.5 306.5 4.96243 306.5 8C306.5 11.0375 308.962 13.5 312 13.5C315.038 13.5 317.5 11.0375 317.5 8C317.5 7.72387 317.724 7.5 318 7.5C318.276 7.5 318.5 7.72387 318.5 8C318.5 11.5899 315.59 14.5 312 14.5C308.41 14.5 305.5 11.5899 305.5 8C305.5 4.41015 308.41 1.5 312 1.5C312.276 1.5 312.5 1.72386 312.5 2C312.5 2.27614 312.276 2.5 312 2.5Z" fill="white"/>
<path transform='rotate(112.5 328 8)' fill-rule="evenodd" clip-rule="evenodd" d="M328 2.5C324.962 2.5 322.5 4.96243 322.5 8C322.5 11.0375 324.962 13.5 328 13.5C331.038 13.5 333.5 11.0375 333.5 8C333.5 7.72387 333.724 7.5 334 7.5C334.276 7.5 334.5 7.72387 334.5 8C334.5 11.5899 331.59 14.5 328 14.5C324.41 14.5 321.5 11.5899 321.5 8C321.5 4.41015 324.41 1.5 328 1.5C328.276 1.5 328.5 1.72386 328.5 2C328.5 2.27614 328.276 2.5 328 2.5Z" fill="white"/>
<path transform='rotate(118.125 344 8)' fill-rule="evenodd" clip-rule="evenodd" d="M344 2.5C340.962 2.5 338.5 4.96243 338.5 8C338.5 11.0375 340.962 13.5 344 13.5C347.038 13.5 349.5 11.0375 349.5 8C349.5 7.72387 349.724 7.5 350 7.5C350.276 7.5 350.5 7.72387 350.5 8C350.5 11.5899 347.59 14.5 344 14.5C340.41 14.5 337.5 11.5899 337.5 8C337.5 4.41015 340.41 1.5 344 1.5C344.276 1.5 344.5 1.72386 344.5 2C344.5 2.27614 344.276 2.5 344 2.5Z" fill="white"/>
<path transform='rotate(123.75 360 8)' fill-rule="evenodd" clip-rule="evenodd" d="M360 2.5C356.962 2.5 354.5 4.96243 354.5 8C354.5 11.0375 356.962 13.5 360 13.5C363.038 13.5 365.5 11.0375 365.5 8C365.5 7.72387 365.724 7.5 366 7.5C366.276 7.5 366.5 7.72387 366.5 8C366.5 11.5899 363.59 14.5 360 14.5C356.41 14.5 353.5 11.5899 353.5 8C353.5 4.41015 356.41 1.5 360 1.5C360.276 1.5 360.5 1.72386 360.5 2C360.5 2.27614 360.276 2.5 360 2.5Z" fill="white"/>
<path transform='rotate(129.375 376 8)' fill-rule="evenodd" clip-rule="evenodd" d="M376 2.5C372.962 2.5 370.5 4.96243 370.5 8C370.5 11.0375 372.962 13.5 376 13.5C379.038 13.5 381.5 11.0375 381.5 8C381.5 7.72387 381.724 7.5 382 7.5C382.276 7.5 382.5 7.72387 382.5 8C382.5 11.5899 379.59 14.5 376 14.5C372.41 14.5 369.5 11.5899 369.5 8C369.5 4.41015 372.41 1.5 376 1.5C376.276 1.5 376.5 1.72386 376.5 2C376.5 2.27614 376.276 2.5 376 2.5Z" fill="white"/>
<path transform='rotate(135.0 392 8)' fill-rule="evenodd" clip-rule="evenodd" d="M392 2.5C388.962 2.5 386.5 4.96243 386.5 8C386.5 11.0375 388.962 13.5 392 13.5C395.038 13.5 397.5 11.0375 397.5 8C397.5 7.72387 397.724 7.5 398 7.5C398.276 7.5 398.5 7.72387 398.5 8C398.5 11.5899 395.59 14.5 392 14.5C388.41 14.5 385.5 11.5899 385.5 8C385.5 4.41015 388.41 1.5 392 1.5C392.276 1.5 392.5 1.72386 392.5 2C392.5 2.27614 392.276 2.5 392 2.5Z" fill="white"/>
<path transform='rotate(140.625 408 8)' fill-rule="evenodd" clip-rule="evenodd" d="M408 2.5C404.962 2.5 402.5 4.96243 402.5 8C402.5 11.0375 404.962 13.5 408 13.5C411.038 13.5 413.5 11.0375 413.5 8C413.5 7.72387 413.724 7.5 414 7.5C414.276 7.5 414.5 7.72387 414.5 8C414.5 11.5899 411.59 14.5 408 14.5C404.41 14.5 401.5 11.5899 401.5 8C401.5 4.41015 404.41 1.5 408 1.5C408.276 1.5 408.5 1.72386 408.5 2C408.5 2.27614 408.276 2.5 408 2.5Z" fill="white"/>
<path transform='rotate(146.25 424 8)' fill-rule="evenodd" clip-rule="evenodd" d="M424 2.5C420.962 2.5 418.5 4.96243 418.5 8C418.5 11.0375 420.962 13.5 424 13.5C427.038 13.5 429.5 11.0375 429.5 8C429.5 7.72387 429.724 7.5 430 7.5C430.276 7.5 430.5 7.72387 430.5 8C430.5 11.5899 427.59 14.5 424 14.5C420.41 14.5 417.5 11.5899 417.5 8C417.5 4.41015 420.41 1.5 424 1.5C424.276 1.5 424.5 1.72386 424.5 2C424.5 2.27614 424.276 2.5 424 2.5Z" fill="white"/>
<path transform='rotate(151.875 440 8)' fill-rule="evenodd" clip-rule="evenodd" d="M440 2.5C436.962 2.5 434.5 4.96243 434.5 8C434.5 11.0375 436.962 13.5 440 13.5C443.038 13.5 445.5 11.0375 445.5 8C445.5 7.72387 445.724 7.5 446 7.5C446.276 7.5 446.5 7.72387 446.5 8C446.5 11.5899 443.59 14.5 440 14.5C436.41 14.5 433.5 11.5899 433.5 8C433.5 4.41015 436.41 1.5 440 1.5C440.276 1.5 440.5 1.72386 440.5 2C440.5 2.27614 440.276 2.5 440 2.5Z" fill="white"/>
<path transform='rotate(157.5 456 8)' fill-rule="evenodd" clip-rule="evenodd" d="M456 2.5C452.962 2.5 450.5 4.96243 450.5 8C450.5 11.0375 452.962 13.5 456 13.5C459.038 13.5 461.5 11.0375 461.5 8C461.5 7.72387 461.724 7.5 462 7.5C462.276 7.5 462.5 7.72387 462.5 8C462.5 11.5899 459.59 14.5 456 14.5C452.41 14.5 449.5 11.5899 449.5 8C449.5 4.41015 452.41 1.5 456 1.5C456.276 1.5 456.5 1.72386 456.5 2C456.5 2.27614 456.276 2.5 456 2.5Z" fill="white"/>
<path transform='rotate(163.125 472 8)' fill-rule="evenodd" clip-rule="evenodd" d="M472 2.5C468.962 2.5 466.5 4.96243 466.5 8C466.5 11.0375 468.962 13.5 472 13.5C475.038 13.5 477.5 11.0375 477.5 8C477.5 7.72387 477.724 7.5 478 7.5C478.276 7.5 478.5 7.72387 478.5 8C478.5 11.5899 475.59 14.5 472 14.5C468.41 14.5 465.5 11.5899 465.5 8C465.5 4.41015 468.41 1.5 472 1.5C472.276 1.5 472.5 1.72386 472.5 2C472.5 2.27614 472.276 2.5 472 2.5Z" fill="white"/>
<path transform='rotate(168.75 488 8)' fill-rule="evenodd" clip-rule="evenodd" d="M488 2.5C484.962 2.5 482.5 4.96243 482.5 8C482.5 11.0375 484.962 13.5 488 13.5C491.038 13.5 493.5 11.0375 493.5 8C493.5 7.72387 493.724 7.5 494 7.5C494.276 7.5 494.5 7.72387 494.5 8C494.5 11.5899 491.59 14.5 488 14.5C484.41 14.5 481.5 11.5899 481.5 8C481.5 4.41015 484.41 1.5 488 1.5C488.276 1.5 488.5 1.72386 488.5 2C488.5 2.27614 488.276 2.5 488 2.5Z" fill="white"/>
<path transform='rotate(174.375 504 8)' fill-rule="evenodd" clip-rule="evenodd" d="M504 2.5C500.962 2.5 498.5 4.96243 498.5 8C498.5 11.0375 500.962 13.5 504 13.5C507.038 13.5 509.5 11.0375 509.5 8C509.5 7.72387 509.724 7.5 510 7.5C510.276 7.5 510.5 7.72387 510.5 8C510.5 11.5899 507.59 14.5 504 14.5C500.41 14.5 497.5 11.5899 497.5 8C497.5 4.41015 500.41 1.5 504 1.5C504.276 1.5 504.5 1.72386 504.5 2C504.5 2.27614 504.276 2.5 504 2.5Z" fill="white"/>
<path transform='rotate(180.0 8 24)' fill-rule="evenodd" clip-rule="evenodd" d="M8 18.5C4.96243 18.5 2.5 20.9624 2.5 24C2.5 27.0375 4.96243 29.5 8 29.5C11.0375 29.5 13.5 27.0375 13.5 24C13.5 23.7239 13.7239 23.5 14 23.5C14.2761 23.5 14.5 23.7239 14.5 24C14.5 27.5899 11.5899 30.5 8 30.5C4.41015 30.5 1.5 27.5899 1.5 24C1.5 20.4101 4.41015 17.5 8 17.5C8.27613 17.5 8.5 17.7239 8.5 18C8.5 18.2761 8.27613 18.5 8 18.5Z" fill="white"/>
<path transform='rotate(185.625 24 24)' fill-rule="evenodd" clip-rule="evenodd" d="M24 18.5C20.9624 18.5 18.5 20.9624 18.5 24C18.5 27.0375 20.9624 29.5 24 29.5C27.0375 29.5 29.5 27.0375 29.5 24C29.5 23.7239 29.7239 23.5 30 23.5C30.2761 23.5 30.5 23.7239 30.5 24C30.5 27.5899 27.5899 30.5 24 30.5C20.4101 30.5 17.5 27.5899 17.5 24C17.5 20.4101 20.4101 17.5 24 17.5C24.2761 17.5 24.5 17.7239 24.5 18C24.5 18.2761 24.2761 18.5 24 18.5Z" fill="white"/>
<path transform='rotate(191.25 40 24)' fill-rule="evenodd" clip-rule="evenodd" d="M40 18.5C36.9624 18.5 34.5 20.9624 34.5 24C34.5 27.0375 36.9624 29.5 40 29.5C43.0375 29.5 45.5 27.0375 45.5 24C45.5 23.7239 45.7239 23.5 46 23.5C46.2761 23.5 46.5 23.7239 46.5 24C46.5 27.5899 43.5899 30.5 40 30.5C36.4101 30.5 33.5 27.5899 33.5 24C33.5 20.4101 36.4101 17.5 40 17.5C40.2761 17.5 40.5 17.7239 40.5 18C40.5 18.2761 40.2761 18.5 40 18.5Z" fill="white"/>
<path transform='rotate(196.875 56 24)' fill-rule="evenodd" clip-rule="evenodd" d="M56 18.5C52.9624 18.5 50.5 20.9624 50.5 24C50.5 27.0375 52.9624 29.5 56 29.5C59.0375 29.5 61.5 27.0375 61.5 24C61.5 23.7239 61.7239 23.5 62 23.5C62.2761 23.5 62.5 23.7239 62.5 24C62.5 27.5899 59.5899 30.5 56 30.5C52.4101 30.5 49.5 27.5899 49.5 24C49.5 20.4101 52.4101 17.5 56 17.5C56.2761 17.5 56.5 17.7239 56.5 18C56.5 18.2761 56.2761 18.5 56 18.5Z" fill="white"/>
<path transform='rotate(202.5 72 24)' fill-rule="evenodd" clip-rule="evenodd" d="M72 18.5C68.9624 18.5 66.5 20.9624 66.5 24C66.5 27.0375 68.9624 29.5 72 29.5C75.0375 29.5 77.5 27.0375 77.5 24C77.5 23.7239 77.7239 23.5 78 23.5C78.2761 23.5 78.5 23.7239 78.5 24C78.5 27.5899 75.5899 30.5 72 30.5C68.4101 30.5 65.5 27.5899 65.5 24C65.5 20.4101 68.4101 17.5 72 17.5C72.2761 17.5 72.5 17.7239 72.5 18C72.5 18.2761 72.2761 18.5 72 18.5Z" fill="white"/>
<path transform='rotate(208.125 88 24)' fill-rule="evenodd" clip-rule="evenodd" d="M88 18.5C84.9624 18.5 82.5 20.9624 82.5 24C82.5 27.0375 84.9624 29.5 88 29.5C91.0375 29.5 93.5 27.0375 93.5 24C93.5 23.7239 93.7239 23.5 94 23.5C94.2761 23.5 94.5 23.7239 94.5 24C94.5 27.5899 91.5899 30.5 88 30.5C84.4101 30.5 81.5 27.5899 81.5 24C81.5 20.4101 84.4101 17.5 88 17.5C88.2761 17.5 88.5 17.7239 88.5 18C88.5 18.2761 88.2761 18.5 88 18.5Z" fill="white"/>
<path transform='rotate(213.75 104 24)' fill-rule="evenodd" clip-rule="evenodd" d="M104 18.5C100.962 18.5 98.5 20.9624 98.5 24C98.5 27.0375 100.962 29.5 104 29.5C107.038 29.5 109.5 27.0375 109.5 24C109.5 23.7239 109.724 23.5 110 23.5C110.276 23.5 110.5 23.7239 110.5 24C110.5 27.5899 107.59 30.5 104 30.5C100.41 30.5 97.5 27.5899 97.5 24C97.5 20.4101 100.41 17.5 104 17.5C104.276 17.5 104.5 17.7239 104.5 18C104.5 18.2761 104.276 18.5 104 18.5Z" fill="white"/>
<path transform='rotate(219.375 120 24)' fill-rule="evenodd" clip-rule="evenodd" d="M120 18.5C116.962 18.5 114.5 20.9624 114.5 24C114.5 27.0375 116.962 29.5 120 29.5C123.038 29.5 125.5 27.0375 125.5 24C125.5 23.7239 125.724 23.5 126 23.5C126.276 23.5 126.5 23.7239 126.5 24C126.5 27.5899 123.59 30.5 120 30.5C116.41 30.5 113.5 27.5899 113.5 24C113.5 20.4101 116.41 17.5 120 17.5C120.276 17.5 120.5 17.7239 120.5 18C120.5 18.2761 120.276 18.5 120 18.5Z" fill="white"/>
<path transform='rotate(225.0 136 24)' fill-rule="evenodd" clip-rule="evenodd" d="M136 18.5C132.962 18.5 130.5 20.9624 130.5 24C130.5 27.0375 132.962 29.5 136 29.5C139.038 29.5 141.5 27.0375 141.5 24C141.5 23.7239 141.724 23.5 142 23.5C142.276 23.5 142.5 23.7239 142.5 24C142.5 27.5899 139.59 30.5 136 30.5C132.41 30.5 129.5 27.5899 129.5 24C129.5 20.4101 132.41 17.5 136 17.5C136.276 17.5 136.5 17.7239 136.5 18C136.5 18.2761 136.276 18.5 136 18.5Z" fill="white"/>
<path transform='rotate(230.625 152 24)' fill-rule="evenodd" clip-rule="evenodd" d="M152 18.5C148.962 18.5 146.5 20.9624 146.5 24C146.5 27.0375 148.962 29.5 152 29.5C155.038 29.5 157.5 27.0375 157.5 24C157.5 23.7239 157.724 23.5 158 23.5C158.276 23.5 158.5 23.7239 158.5 24C158.5 27.5899 155.59 30.5 152 30.5C148.41 30.5 145.5 27.5899 145.5 24C145.5 20.4101 148.41 17.5 152 17.5C152.276 17.5 152.5 17.7239 152.5 18C152.5 18.2761 152.276 18.5 152 18.5Z" fill="white"/>
<path transform='rotate(236.25 168 24)' fill-rule="evenodd" clip-rule="evenodd" d="M168 18.5C164.962 18.5 162.5 20.9624 162.5 24C162.5 27.0375 164.962 29.5 168 29.5C171.038 29.5 173.5 27.0375 173.5 24C173.5 23.7239 173.724 23.5 174 23.5C174.276 23.5 174.5 23.7239 174.5 24C174.5 27.5899 171.59 30.5 168 30.5C164.41 30.5 161.5 27.5899 161.5 24C161.5 20.4101 164.41 17.5 168 17.5C168.276 17.5 168.5 17.7239 168.5 18C168.5 18.2761 168.276 18.5 168 18.5Z" fill="white"/>
<path transform='rotate(241.875 184 24)' fill-rule="evenodd" clip-rule="evenodd" d="M184 18.5C180.962 18.5 178.5 20.9624 178.5 24C178.5 27.0375 180.962 29.5 184 29.5C187.038 29.5 189.5 27.0375 189.5 24C189.5 23.7239 189.724 23.5 190 23.5C190.276 23.5 190.5 23.7239 190.5 24C190.5 27.5899 187.59 30.5 184 30.5C180.41 30.5 177.5 27.5899 177.5 24C177.5 20.4101 180.41 17.5 184 17.5C184.276 17.5 184.5 17.7239 184.5 18C184.5 18.2761 184.276 18.5 184 18.5Z" fill="white"/>
<path transform='rotate(247.5 200 24)' fill-rule="evenodd" clip-rule="evenodd" d="M200 18.5C196.962 18.5 194.5 20.9624 194.5 24C194.5 27.0375 196.962 29.5 200 29.5C203.038 29.5 205.5 27.0375 205.5 24C205.5 23.7239 205.724 23.5 206 23.5C206.276 23.5 206.5 23.7239 206.5 24C206.5 27.5899 203.59 30.5 200 30.5C196.41 30.5 193.5 27.5899 193.5 24C193.5 20.4101 196.41 17.5 200 17.5C200.276 17.5 200.5 17.7239 200.5 18C200.5 18.2761 200.276 18.5 200 18.5Z" fill="white"/>
<path transform='rotate(253.125 216 24)' fill-rule="evenodd" clip-rule="evenodd" d="M216 18.5C212.962 18.5 210.5 20.9624 210.5 24C210.5 27.0375 212.962 29.5 216 29.5C219.038 29.5 221.5 27.0375 221.5 24C221.5 23.7239 221.724 23.5 222 23.5C222.276 23.5 222.5 23.7239 222.5 24C222.5 27.5899 219.59 30.5 216 30.5C212.41 30.5 209.5 27.5899 209.5 24C209.5 20.4101 212.41 17.5 216 17.5C216.276 17.5 216.5 17.7239 216.5 18C216.5 18.2761 216.276 18.5 216 18.5Z" fill="white"/>
<path transform='rotate(258.75 232 24)' fill-rule="evenodd" clip-rule="evenodd" d="M232 18.5C228.962 18.5 226.5 20.9624 226.5 24C226.5 27.0375 228.962 29.5 232 29.5C235.038 29.5 237.5 27.0375 237.5 24C237.5 23.7239 237.724 23.5 238 23.5C238.276 23.5 238.5 23.7239 238.5 24C238.5 27.5899 235.59 30.5 232 30.5C228.41 30.5 225.5 27.5899 225.5 24C225.5 20.4101 228.41 17.5 232 17.5C232.276 17.5 232.5 17.7239 232.5 18C232.5 18.2761 232.276 18.5 232 18.5Z" fill="white"/>
<path transform='rotate(264.375 248 24)' fill-rule="evenodd" clip-rule="evenodd" d="M248 18.5C244.962 18.5 242.5 20.9624 242.5 24C242.5 27.0375 244.962 29.5 248 29.5C251.038 29.5 253.5 27.0375 253.5 24C253.5 23.7239 253.724 23.5 254 23.5C254.276 23.5 254.5 23.7239 254.5 24C254.5 27.5899 251.59 30.5 248 30.5C244.41 30.5 241.5 27.5899 241.5 24C241.5 20.4101 244.41 17.5 248 17.5C248.276 17.5 248.5 17.7239 248.5 18C248.5 18.2761 248.276 18.5 248 18.5Z" fill="white"/>
<path transform='rotate(270.0 264 24)' fill-rule="evenodd" clip-rule="evenodd" d="M264 18.5C260.962 18.5 258.5 20.9624 258.5 24C258.5 27.0375 260.962 29.5 264 29.5C267.038 29.5 269.5 27.0375 269.5 24C269.5 23.7239 269.724 23.5 270 23.5C270.276 23.5 270.5 23.7239 270.5 24C270.5 27.5899 267.59 30.5 264 30.5C260.41 30.5 257.5 27.5899 257.5 24C257.5 20.4101 260.41 17.5 264 17.5C264.276 17.5 264.5 17.7239 264.5 18C264.5 18.2761 264.276 18.5 264 18.5Z" fill="white"/>
<path transform='rotate(275.625 280 24)' fill-rule="evenodd" clip-rule="evenodd" d="M280 18.5C276.962 18.5 274.5 20.9624 274.5 24C274.5 27.0375 276.962 29.5 280 29.5C283.038 29.5 285.5 27.0375 285.5 24C285.5 23.7239 285.724 23.5 286 23.5C286.276 23.5 286.5 23.7239 286.5 24C286.5 27.5899 283.59 30.5 280 30.5C276.41 30.5 273.5 27.5899 273.5 24C273.5 20.4101 276.41 17.5 280 17.5C280.276 17.5 280.5 17.7239 280.5 18C280.5 18.2761 280.276 18.5 280 18.5Z" fill="white"/>
<path transform='rotate(281.25 296 24)' fill-rule="evenodd" clip-rule="evenodd" d="M296 18.5C292.962 18.5 290.5 20.9624 290.5 24C290.5 27.0375 292.962 29.5 296 29.5C299.038 29.5 301.5 27.0375 301.5 24C301.5 23.7239 301.724 23.5 302 23.5C302.276 23.5 302.5 23.7239 302.5 24C302.5 27.5899 299.59 30.5 296 30.5C292.41 30.5 289.5 27.5899 289.5 24C289.5 20.4101 292.41 17.5 296 17.5C296.276 17.5 296.5 17.7239 296.5 18C296.5 18.2761 296.276 18.5 296 18.5Z" fill="white"/>
<path transform='rotate(286.875 312 24)' fill-rule="evenodd" clip-rule="evenodd" d="M312 18.5C308.962 18.5 306.5 20.9624 306.5 24C306.5 27.0375 308.962 29.5 312 29.5C315.038 29.5 317.5 27.0375 317.5 24C317.5 23.7239 317.724 23.5 318 23.5C318.276 23.5 318.5 23.7239 318.5 24C318.5 27.5899 315.59 30.5 312 30.5C308.41 30.5 305.5 27.5899 305.5 24C305.5 20.4101 308.41 17.5 312 17.5C312.276 17.5 312.5 17.7239 312.5 18C312.5 18.2761 312.276 18.5 312 18.5Z" fill="white"/>
<path transform='rotate(292.5 328 24)' fill-rule="evenodd" clip-rule="evenodd" d="M328 18.5C324.962 18.5 322.5 20.9624 322.5 24C322.5 27.0375 324.962 29.5 328 29.5C331.038 29.5 333.5 27.0375 333.5 24C333.5 23.7239 333.724 23.5 334 23.5C334.276 23.5 334.5 23.7239 334.5 24C334.5 27.5899 331.59 30.5 328 30.5C324.41 30.5 321.5 27.5899 321.5 24C321.5 20.4101 324.41 17.5 328 17.5C328.276 17.5 328.5 17.7239 328.5 18C328.5 18.2761 328.276 18.5 328 18.5Z" fill="white"/>
<path transform='rotate(298.125 344 24)' fill-rule="evenodd" clip-rule="evenodd" d="M344 18.5C340.962 18.5 338.5 20.9624 338.5 24C338.5 27.0375 340.962 29.5 344 29.5C347.038 29.5 349.5 27.0375 349.5 24C349.5 23.7239 349.724 23.5 350 23.5C350.276 23.5 350.5 23.7239 350.5 24C350.5 27.5899 347.59 30.5 344 30.5C340.41 30.5 337.5 27.5899 337.5 24C337.5 20.4101 340.41 17.5 344 17.5C344.276 17.5 344.5 17.7239 344.5 18C344.5 18.2761 344.276 18.5 344 18.5Z" fill="white"/>
<path transform='rotate(303.75 360 24)' fill-rule="evenodd" clip-rule="evenodd" d="M360 18.5C356.962 18.5 354.5 20.9624 354.5 24C354.5 27.0375 356.962 29.5 360 29.5C363.038 29.5 365.5 27.0375 365.5 24C365.5 23.7239 365.724 23.5 366 23.5C366.276 23.5 366.5 23.7239 366.5 24C366.5 27.5899 363.59 30.5 360 30.5C356.41 30.5 353.5 27.5899 353.5 24C353.5 20.4101 356.41 17.5 360 17.5C360.276 17.5 360.5 17.7239 360.5 18C360.5 18.2761 360.276 18.5 360 18.5Z" fill="white"/>
<path transform='rotate(309.375 376 24)' fill-rule="evenodd" clip-rule="evenodd" d="M376 18.5C372.962 18.5 370.5 20.9624 370.5 24C370.5 27.0375 372.962 29.5 376 29.5C379.038 29.5 381.5 27.0375 381.5 24C381.5 23.7239 381.724 23.5 382 23.5C382.276 23.5 382.5 23.7239 382.5 24C382.5 27.5899 379.59 30.5 376 30.5C372.41 30.5 369.5 27.5899 369.5 24C369.5 20.4101 372.41 17.5 376 17.5C376.276 17.5 376.5 17.7239 376.5 18C376.5 18.2761 376.276 18.5 376 18.5Z" fill="white"/>
<path transform='rotate(315.0 392 24)' fill-rule="evenodd" clip-rule="evenodd" d="M392 18.5C388.962 18.5 386.5 20.9624 386.5 24C386.5 27.0375 388.962 29.5 392 29.5C395.038 29.5 397.5 27.0375 397.5 24C397.5 23.7239 397.724 23.5 398 23.5C398.276 23.5 398.5 23.7239 398.5 24C398.5 27.5899 395.59 30.5 392 30.5C388.41 30.5 385.5 27.5899 385.5 24C385.5 20.4101 388.41 17.5 392 17.5C392.276 17.5 392.5 17.7239 392.5 18C392.5 18.2761 392.276 18.5 392 18.5Z" fill="white"/>
<path transform='rotate(320.625 408 24)' fill-rule="evenodd" clip-rule="evenodd" d="M408 18.5C404.962 18.5 402.5 20.9624 402.5 24C402.5 27.0375 404.962 29.5 408 29.5C411.038 29.5 413.5 27.0375 413.5 24C413.5 23.7239 413.724 23.5 414 23.5C414.276 23.5 414.5 23.7239 414.5 24C414.5 27.5899 411.59 30.5 408 30.5C404.41 30.5 401.5 27.5899 401.5 24C401.5 20.4101 404.41 17.5 408 17.5C408.276 17.5 408.5 17.7239 408.5 18C408.5 18.2761 408.276 18.5 408 18.5Z" fill="white"/>
<path transform='rotate(326.25 424 24)' fill-rule="evenodd" clip-rule="evenodd" d="M424 18.5C420.962 18.5 418.5 20.9624 418.5 24C418.5 27.0375 420.962 29.5 424 29.5C427.038 29.5 429.5 27.0375 429.5 24C429.5 23.7239 429.724 23.5 430 23.5C430.276 23.5 430.5 23.7239 430.5 24C430.5 27.5899 427.59 30.5 424 30.5C420.41 30.5 417.5 27.5899 417.5 24C417.5 20.4101 420.41 17.5 424 17.5C424.276 17.5 424.5 17.7239 424.5 18C424.5 18.2761 424.276 18.5 424 18.5Z" fill="white"/>
<path transform='rotate(331.875 440 24)' fill-rule="evenodd" clip-rule="evenodd" d="M440 18.5C436.962 18.5 434.5 20.9624 434.5 24C434.5 27.0375 436.962 29.5 440 29.5C443.038 29.5 445.5 27.0375 445.5 24C445.5 23.7239 445.724 23.5 446 23.5C446.276 23.5 446.5 23.7239 446.5 24C446.5 27.5899 443.59 30.5 440 30.5C436.41 30.5 433.5 27.5899 433.5 24C433.5 20.4101 436.41 17.5 440 17.5C440.276 17.5 440.5 17.7239 440.5 18C440.5 18.2761 440.276 18.5 440 18.5Z" fill="white"/>
<path transform='rotate(337.5 456 24)' fill-rule="evenodd" clip-rule="evenodd" d="M456 18.5C452.962 18.5 450.5 20.9624 450.5 24C450.5 27.0375 452.962 29.5 456 29.5C459.038 29.5 461.5 27.0375 461.5 24C461.5 23.7239 461.724 23.5 462 23.5C462.276 23.5 462.5 23.7239 462.5 24C462.5 27.5899 459.59 30.5 456 30.5C452.41 30.5 449.5 27.5899 449.5 24C449.5 20.4101 452.41 17.5 456 17.5C456.276 17.5 456.5 17.7239 456.5 18C456.5 18.2761 456.276 18.5 456 18.5Z" fill="white"/>
<path transform='rotate(343.125 472 24)' fill-rule="evenodd" clip-rule="evenodd" d="M472 18.5C468.962 18.5 466.5 20.9624 466.5 24C466.5 27.0375 468.962 29.5 472 29.5C475.038 29.5 477.5 27.0375 477.5 24C477.5 23.7239 477.724 23.5 478 23.5C478.276 23.5 478.5 23.7239 478.5 24C478.5 27.5899 475.59 30.5 472 30.5C468.41 30.5 465.5 27.5899 465.5 24C465.5 20.4101 468.41 17.5 472 17.5C472.276 17.5 472.5 17.7239 472.5 18C472.5 18.2761 472.276 18.5 472 18.5Z" fill="white"/>
<path transform='rotate(348.75 488 24)' fill-rule="evenodd" clip-rule="evenodd" d="M488 18.5C484.962 18.5 482.5 20.9624 482.5 24C482.5 27.0375 484.962 29.5 488 29.5C491.038 29.5 493.5 27.0375 493.5 24C493.5 23.7239 493.724 23.5 494 23.5C494.276 23.5 494.5 23.7239 494.5 24C494.5 27.5899 491.59 30.5 488 30.5C484.41 30.5 481.5 27.5899 481.5 24C481.5 20.4101 484.41 17.5 488 17.5C488.276 17.5 488.5 17.7239 488.5 18C488.5 18.2761 488.276 18.5 488 18.5Z" fill="white"/>
<path transform='rotate(354.375 504 24)' fill-rule="evenodd" clip-rule="evenodd" d="M504 18.5C500.962 18.5 498.5 20.9624 498.5 24C498.5 27.0375 500.962 29.5 504 29.5C507.038 29.5 509.5 27.0375 509.5 24C509.5 23.7239 509.724 23.5 510 23.5C510.276 23.5 510.5 23.7239 510.5 24C510.5 27.5899 507.59 30.5 504 30.5C500.41 30.5 497.5 27.5899 497.5 24C497.5 20.4101 500.41 17.5 504 17.5C504.276 17.5 504.5 17.7239 504.5 18C504.5 18.2761 504.276 18.5 504 18.5Z" fill="white"/>
</svg>

